<svg xmlns="http://www.w3.org/2000/svg" viewBox="0 0 1120 340" role="img" aria-labelledby="title desc">
  <title id="title">Stage 4 data flow</title>
  <desc id="desc">Producer sends telemetry with eventId into Kafka. Consumer, alert consumer, and storage consumer read the topic. Storage retries failures, writes idempotently to Postgres, routes exhausted failures to the DLQ topic, and the DLQ viewer reads that topic.</desc>
  <defs>
    <linearGradient id="bg" x1="0" x2="1">
      <stop offset="0%" stop-color="#fff8ef"/>
      <stop offset="100%" stop-color="#f7efe4"/>
    </linearGradient>
    <marker id="arrow" markerWidth="10" markerHeight="10" refX="9" refY="5" orient="auto">
      <path d="M0,0 L10,5 L0,10 z" fill="#9a5a18"/>
    </marker>
  </defs>
  <rect width="1120" height="340" rx="28" fill="url(#bg)"/>
  <g font-family="'Trebuchet MS', 'Segoe UI', sans-serif">
    <rect x="26" y="128" width="150" height="84" rx="18" fill="#15243a"/>
    <text x="101" y="162" fill="#fff" font-size="18" text-anchor="middle" font-weight="700">Producer UI</text>
    <text x="101" y="186" fill="#c7d3e3" font-size="12" text-anchor="middle">eventId + always-on</text>

    <rect x="220" y="118" width="170" height="104" rx="22" fill="#cd5c08"/>
    <text x="305" y="155" fill="#fff" font-size="22" text-anchor="middle" font-weight="700">Kafka</text>
    <text x="305" y="180" fill="#ffe7d0" font-size="13" text-anchor="middle">vehicle-telemetry</text>
    <text x="305" y="200" fill="#ffe7d0" font-size="13" text-anchor="middle">3 partitions</text>

    <rect x="444" y="36" width="160" height="72" rx="18" fill="#1d3557"/>
    <text x="524" y="68" fill="#fff" font-size="17" text-anchor="middle" font-weight="700">Consumer UI</text>
    <text x="524" y="89" fill="#c8d7ec" font-size="12" text-anchor="middle">live SSE stream</text>

    <rect x="444" y="122" width="160" height="72" rx="18" fill="#174e3a"/>
    <text x="524" y="154" fill="#fff" font-size="17" text-anchor="middle" font-weight="700">Alert Consumer</text>
    <text x="524" y="175" fill="#cbe8dc" font-size="12" text-anchor="middle">alerts + metrics</text>

    <rect x="444" y="208" width="178" height="84" rx="18" fill="#365a2c"/>
    <text x="533" y="239" fill="#fff" font-size="17" text-anchor="middle" font-weight="700">Storage Consumer</text>
    <text x="533" y="260" fill="#d9ebd0" font-size="12" text-anchor="middle">retry + manual commit</text>
    <text x="533" y="277" fill="#d9ebd0" font-size="12" text-anchor="middle">idempotent DB sink</text>

    <rect x="692" y="208" width="150" height="84" rx="18" fill="#2f5d62"/>
    <text x="767" y="239" fill="#fff" font-size="17" text-anchor="middle" font-weight="700">Postgres</text>
    <text x="767" y="260" fill="#d3eef0" font-size="12" text-anchor="middle">telemetry_events</text>
    <text x="767" y="277" fill="#d3eef0" font-size="12" text-anchor="middle">UNIQUE(event_id)</text>

    <rect x="876" y="208" width="130" height="84" rx="18" fill="#7a1f1f"/>
    <text x="941" y="239" fill="#fff" font-size="17" text-anchor="middle" font-weight="700">DLQ Topic</text>
    <text x="941" y="260" fill="#f6c6c6" font-size="12" text-anchor="middle">failed events</text>

    <rect x="964" y="36" width="130" height="78" rx="18" fill="#5b255f"/>
    <text x="1029" y="68" fill="#fff" font-size="17" text-anchor="middle" font-weight="700">DLQ Viewer</text>
    <text x="1029" y="89" fill="#ead1ee" font-size="12" text-anchor="middle">inspect records</text>

    <path d="M176 170 H210" stroke="#9a5a18" stroke-width="4" fill="none" marker-end="url(#arrow)"/>
    <path d="M390 140 C420 140, 424 82, 444 72" stroke="#9a5a18" stroke-width="4" fill="none" marker-end="url(#arrow)"/>
    <path d="M390 170 H434" stroke="#9a5a18" stroke-width="4" fill="none" marker-end="url(#arrow)"/>
    <path d="M390 202 C420 202, 424 246, 444 250" stroke="#9a5a18" stroke-width="4" fill="none" marker-end="url(#arrow)"/>
    <path d="M622 250 H682" stroke="#9a5a18" stroke-width="4" fill="none" marker-end="url(#arrow)"/>
    <path d="M622 276 C718 276, 776 308, 876 276" stroke="#9a5a18" stroke-width="4" fill="none" marker-end="url(#arrow)"/>
    <path d="M941 208 V124 C941 98, 950 80, 964 76" stroke="#9a5a18" stroke-width="4" fill="none" marker-end="url(#arrow)"/>

    <text x="414" y="126" fill="#7b5d46" font-size="11" font-weight="700">fan-out</text>
    <text x="640" y="238" fill="#7b5d46" font-size="11" font-weight="700">insert once</text>
    <text x="700" y="304" fill="#7b5d46" font-size="11" font-weight="700">retry exhausted → DLQ</text>
    <text x="948" y="136" fill="#7b5d46" font-size="11" font-weight="700">read failed records</text>
  </g>
</svg>
