<svg xmlns="http://www.w3.org/2000/svg" viewBox="0 0 1040 340" role="img" aria-labelledby="title desc">
  <title id="title">Stage 3 data flow</title>
  <desc id="desc">Producer sends telemetry with eventId into Kafka. Consumer, alert consumer, and storage consumer read the topic. Storage writes idempotently to Postgres and routes failures to the DLQ.</desc>
  <defs>
    <linearGradient id="bg" x1="0" x2="1">
      <stop offset="0%" stop-color="#fff8ef"/>
      <stop offset="100%" stop-color="#f7efe4"/>
    </linearGradient>
    <marker id="arrow" markerWidth="10" markerHeight="10" refX="9" refY="5" orient="auto">
      <path d="M0,0 L10,5 L0,10 z" fill="#9a5a18"/>
    </marker>
  </defs>
  <rect width="1040" height="340" rx="28" fill="url(#bg)"/>
  <g font-family="'Trebuchet MS', 'Segoe UI', sans-serif">
    <rect x="26" y="128" width="150" height="84" rx="18" fill="#15243a"/>
    <text x="101" y="162" fill="#fff" font-size="18" text-anchor="middle" font-weight="700">Producer UI</text>
    <text x="101" y="186" fill="#c7d3e3" font-size="12" text-anchor="middle">eventId + always-on</text>
    <rect x="226" y="118" width="170" height="104" rx="22" fill="#cd5c08"/>
    <text x="311" y="155" fill="#fff" font-size="22" text-anchor="middle" font-weight="700">Kafka</text>
    <text x="311" y="180" fill="#ffe7d0" font-size="13" text-anchor="middle">vehicle-telemetry</text>
    <text x="311" y="200" fill="#ffe7d0" font-size="13" text-anchor="middle">3 partitions</text>
    <rect x="468" y="38" width="160" height="72" rx="18" fill="#1d3557"/>
    <text x="548" y="70" fill="#fff" font-size="17" text-anchor="middle" font-weight="700">Consumer UI</text>
    <text x="548" y="91" fill="#c8d7ec" font-size="12" text-anchor="middle">live SSE stream</text>
    <rect x="468" y="126" width="160" height="72" rx="18" fill="#174e3a"/>
    <text x="548" y="158" fill="#fff" font-size="17" text-anchor="middle" font-weight="700">Alert Consumer</text>
    <text x="548" y="179" fill="#cbe8dc" font-size="12" text-anchor="middle">alerts + metrics</text>
    <rect x="468" y="214" width="176" height="82" rx="18" fill="#365a2c"/>
    <text x="556" y="246" fill="#fff" font-size="17" text-anchor="middle" font-weight="700">Storage Consumer</text>
    <text x="556" y="267" fill="#d9ebd0" font-size="12" text-anchor="middle">manual commit + dedupe</text>
    <text x="556" y="284" fill="#d9ebd0" font-size="12" text-anchor="middle">idempotent DB sink</text>
    <rect x="720" y="214" width="150" height="82" rx="18" fill="#2f5d62"/>
    <text x="795" y="246" fill="#fff" font-size="17" text-anchor="middle" font-weight="700">Postgres</text>
    <text x="795" y="267" fill="#d3eef0" font-size="12" text-anchor="middle">telemetry_events</text>
    <text x="795" y="284" fill="#d3eef0" font-size="12" text-anchor="middle">UNIQUE(event_id)</text>
    <rect x="894" y="214" width="120" height="82" rx="18" fill="#7a1f1f"/>
    <text x="954" y="246" fill="#fff" font-size="17" text-anchor="middle" font-weight="700">DLQ Topic</text>
    <text x="954" y="267" fill="#f6c6c6" font-size="12" text-anchor="middle">failed telemetry</text>
    <path d="M176 170 H216" stroke="#9a5a18" stroke-width="4" fill="none" marker-end="url(#arrow)"/>
    <path d="M396 140 C428 140, 436 82, 468 74" stroke="#9a5a18" stroke-width="4" fill="none" marker-end="url(#arrow)"/>
    <path d="M396 170 H458" stroke="#9a5a18" stroke-width="4" fill="none" marker-end="url(#arrow)"/>
    <path d="M396 202 C428 202, 438 252, 468 255" stroke="#9a5a18" stroke-width="4" fill="none" marker-end="url(#arrow)"/>
    <path d="M644 255 H710" stroke="#9a5a18" stroke-width="4" fill="none" marker-end="url(#arrow)"/>
    <path d="M644 278 C712 278, 760 300, 894 278" stroke="#9a5a18" stroke-width="4" fill="none" marker-end="url(#arrow)"/>
    <text x="424" y="126" fill="#7b5d46" font-size="11" font-weight="700">fan-out</text>
    <text x="662" y="243" fill="#7b5d46" font-size="11" font-weight="700">insert once</text>
    <text x="704" y="304" fill="#7b5d46" font-size="11" font-weight="700">hard failure → DLQ</text>
  </g>
</svg>
